<svg xmlns="http://www.w3.org/2000/svg"
    width="24" 
    height="24" 
    viewBox="0 0 24 24" >
	 <path
        fill="#008577"
        d="M0,0h108v108h-108z"/>
    <path
        fill="#00000000"
        d="M9,0L9,108"
        android:strokeColor="#33FFFFFF"
        android:strokeWidth="0.8"/>
    <path
        fill="#00000000"
        d="M19,0L19,108"
        android:strokeColor="#33FFFFFF"
        android:strokeWidth="0.8"/>
    <path
        fill="#00000000"
        d="M29,0L29,108"
        android:strokeColor="#33FFFFFF"
        android:strokeWidth="0.8"/>
    <path
        fill="#00000000"
        d="M39,0L39,108"
        android:strokeColor="#33FFFFFF"
        android:strokeWidth="0.8"/>
    <path
        fill="#00000000"
        d="M49,0L49,108"
        android:strokeColor="#33FFFFFF"
        android:strokeWidth="0.8"/>
    <path
        fill="#00000000"
        d="M59,0L59,108"
        android:strokeColor="#33FFFFFF"
        android:strokeWidth="0.8"/>
    <path
        fill="#00000000"
        d="M69,0L69,108"
        android:strokeColor="#33FFFFFF"
        android:strokeWidth="0.8"/>
    <path
        fill="#00000000"
        d="M79,0L79,108"
        android:strokeColor="#33FFFFFF"
        android:strokeWidth="0.8"/>
    <path
        fill="#00000000"
        d="M89,0L89,108"
        android:strokeColor="#33FFFFFF"
        android:strokeWidth="0.8"/>
    <path
        fill="#00000000"
        d="M99,0L99,108"
        android:strokeColor="#33FFFFFF"
        android:strokeWidth="0.8"/>
    <path
        fill="#00000000"
        d="M0,9L108,9"
        android:strokeColor="#33FFFFFF"
        android:strokeWidth="0.8"/>
    <path
        fill="#00000000"
        d="M0,19L108,19"
        android:strokeColor="#33FFFFFF"
        android:strokeWidth="0.8"/>
    <path
        fill="#00000000"
        d="M0,29L108,29"
        android:strokeColor="#33FFFFFF"
        android:strokeWidth="0.8"/>
    <path
        fill="#00000000"
        d="M0,39L108,39"
        android:strokeColor="#33FFFFFF"
        android:strokeWidth="0.8"/>
    <path
        fill="#00000000"
        d="M0,49L108,49"
        android:strokeColor="#33FFFFFF"
        android:strokeWidth="0.8"/>
    <path
        fill="#00000000"
        d="M0,59L108,59"
        android:strokeColor="#33FFFFFF"
        android:strokeWidth="0.8"/>
    <path
        fill="#00000000"
        d="M0,69L108,69"
        android:strokeColor="#33FFFFFF"
        android:strokeWidth="0.8"/>
    <path
        fill="#00000000"
        d="M0,79L108,79"
        android:strokeColor="#33FFFFFF"
        android:strokeWidth="0.8"/>
    <path
        fill="#00000000"
        d="M0,89L108,89"
        android:strokeColor="#33FFFFFF"
        android:strokeWidth="0.8"/>
    <path
        fill="#00000000"
        d="M0,99L108,99"
        android:strokeColor="#33FFFFFF"
        android:strokeWidth="0.8"/>
    <path
        fill="#00000000"
        d="M19,29L89,29"
        android:strokeColor="#33FFFFFF"
        android:strokeWidth="0.8"/>
    <path
        fill="#00000000"
        d="M19,39L89,39"
        android:strokeColor="#33FFFFFF"
        android:strokeWidth="0.8"/>
    <path
        fill="#00000000"
        d="M19,49L89,49"
        android:strokeColor="#33FFFFFF"
        android:strokeWidth="0.8"/>
    <path
        fill="#00000000"
        d="M19,59L89,59"
        android:strokeColor="#33FFFFFF"
        android:strokeWidth="0.8"/>
    <path
        fill="#00000000"
        d="M19,69L89,69"
        android:strokeColor="#33FFFFFF"
        android:strokeWidth="0.8"/>
    <path
        fill="#00000000"
        d="M19,79L89,79"
        android:strokeColor="#33FFFFFF"
        android:strokeWidth="0.8"/>
    <path
        fill="#00000000"
        d="M29,19L29,89"
        android:strokeColor="#33FFFFFF"
        android:strokeWidth="0.8"/>
    <path
        fill="#00000000"
        d="M39,19L39,89"
        android:strokeColor="#33FFFFFF"
        android:strokeWidth="0.8"/>
    <path
        fill="#00000000"
        d="M49,19L49,89"
        android:strokeColor="#33FFFFFF"
        android:strokeWidth="0.8"/>
    <path
        fill="#00000000"
        d="M59,19L59,89"
        android:strokeColor="#33FFFFFF"
        android:strokeWidth="0.8"/>
    <path
        fill="#00000000"
        d="M69,19L69,89"
        android:strokeColor="#33FFFFFF"
        android:strokeWidth="0.8"/>
    <path
        fill="#00000000"
        d="M79,19L79,89"
        android:strokeColor="#33FFFFFF"
        android:strokeWidth="0.8"/>
</svg>
